<?xml version="1.0" encoding="UTF-8" standalone="no"?>
<!-- Created with Inkscape (http://www.inkscape.org/) -->

<svg
   xmlns:dc="http://purl.org/dc/elements/1.1/"
   xmlns:cc="http://creativecommons.org/ns#"
   xmlns:rdf="http://www.w3.org/1999/02/22-rdf-syntax-ns#"
   xmlns:svg="http://www.w3.org/2000/svg"
   xmlns="http://www.w3.org/2000/svg"
   xmlns:sodipodi="http://sodipodi.sourceforge.net/DTD/sodipodi-0.dtd"
   xmlns:inkscape="http://www.inkscape.org/namespaces/inkscape"
   width="494"
   height="578"
   viewBox="0 0 493.99999 578.00001"
   id="svg4483"
   version="1.1"
   inkscape:version="0.91 r13725"
   sodipodi:docname="drawing_proj.svg">
  <defs
     id="defs4485" />
  <sodipodi:namedview
     id="base"
     pagecolor="#ffffff"
     bordercolor="#666666"
     borderopacity="1.0"
     inkscape:pageopacity="0.0"
     inkscape:pageshadow="2"
     inkscape:zoom="0.70710678"
     inkscape:cx="27.525844"
     inkscape:cy="274.56916"
     inkscape:document-units="px"
     inkscape:current-layer="svg4483"
     showgrid="false"
     inkscape:window-width="1918"
     inkscape:window-height="1078"
     inkscape:window-x="0"
     inkscape:window-y="0"
     inkscape:window-maximized="0"
     fit-margin-top="0"
     fit-margin-left="0"
     fit-margin-right="0"
     fit-margin-bottom="0"
     units="px"
     showguides="false"
     inkscape:guide-bbox="true">
    <sodipodi:guide
       position="406.21024,493.69351"
       orientation="0,1"
       id="guide5164" />
    <sodipodi:guide
       position="510.86204,247.62035"
       orientation="0,1"
       id="guide5166" />
    <sodipodi:guide
       position="491.77015,380.55642"
       orientation="1,0"
       id="guide5168" />
    <sodipodi:guide
       position="247,514.90672"
       orientation="1,0"
       id="guide5170"
       inkscape:label=""
       inkscape:color="rgb(0,0,255)" />
    <sodipodi:guide
       position="416.99999,1.1745946"
       orientation="0,1"
       id="guide5208" />
    <sodipodi:guide
       position="-1.7500001e-07,364.17461"
       orientation="1,0"
       id="guide5210" />
  </sodipodi:namedview>
  <metadata
     id="metadata4488">
    <rdf:RDF>
      <cc:Work
         rdf:about="">
        <dc:format>image/svg+xml</dc:format>
        <dc:type
           rdf:resource="http://purl.org/dc/dcmitype/StillImage" />
        <dc:title />
      </cc:Work>
    </rdf:RDF>
  </metadata>
  <path
     d="m 403.32325,166.90376 42.19618,0 0,27.14374 -104.13326,114.74399 -17.76681,-9.62369 60.20975,-66.37878 -17.52006,-23.93584 17.27329,-9.13017 12.58483,17.02653 29.85812,-33.06601 -38.248,0 -42.19618,46.88464 -17.02653,-9.13017 57.49537,-63.41764 25.16966,0 -7.89636,8.8834 z m -2.96114,-52.31338 0,13.32511 -91.0549,100.43183 -17.02653,-9.13017 43.42998,-47.87168 -16.03948,-21.71499 17.27329,-9.37693 10.85749,14.55891 21.46823,-23.68908 -33.55953,0 -25.66317,28.37755 -16.03948,-8.63665 38.74152,-42.6897 23.68908,0 -5.92228,6.4158 49.84578,0 z"
     style="font-style:normal;font-variant:normal;font-weight:600;font-stretch:normal;font-size:180px;line-height:100%;font-family:Kaiso;-inkscape-font-specification:'Kaiso Semi-Bold';letter-spacing:0px;word-spacing:0px;writing-mode:tb-rl;fill:#006378;fill-opacity:1;stroke:none;stroke-width:1px;stroke-linecap:butt;stroke-linejoin:miter;stroke-opacity:1"
     id="path4441"
     inkscape:connector-curvature="0" />
  <path
     d="m 357.42565,486.70636 0,-111.28933 -8.38988,0 0,-14.80567 53.30043,0 0,14.80567 -9.13017,0 0,148.30347 -15.2992,0 0,-30.59835 -23.44232,14.55895 -7.89636,-14.55895 10.8575,-6.41579 z m 20.48118,-57.9889 0,-20.48118 -5.42874,0 0,20.48118 5.42874,0 z m -5.42874,48.61197 5.42874,-3.45466 0,-31.58544 -5.42874,0 0,35.0401 z m 5.42874,-82.66502 0,-19.24738 -5.42874,0 0,19.24738 5.42874,0 z M 344.59407,531.8637 447,532.1104 l 0,17.5201 -112.52315,0 -23.68908,-40.7156 -7.6496,44.9105 -16.77976,-9.1301 14.31215,-83.15859 18.26033,0 -3.45466,20.48118 4.93523,8.63665 0,-64.65145 -28.37755,0 0,-17.02653 28.37755,0 0,-18.5071 -24.42937,0 0,-17.02652 24.42937,0 0,-18.5071 18.26033,0 0,18.5071 8.38988,0 0,17.02652 -8.38988,0 0,18.5071 14.31216,0 0,17.02653 -14.31216,0 0,19.98766 13.07835,0 0,17.52005 -13.07835,0 0,57.9889 5.92228,10.364 z m 55.02776,-135.96548 0,-17.02654 46.63788,0 0,18.5071 -15.05243,57.24861 L 447,514.3436 l -15.54596,8.1431 -11.10427,-41.94938 -10.8575,41.70268 -14.55891,-7.6496 17.02653,-64.15795 -10.61074,-40.22209 12.83159,-6.90931 6.16903,23.44232 8.14314,-30.84515 -28.87108,0 z"
     style="font-style:normal;font-variant:normal;font-weight:600;font-stretch:normal;font-size:180px;line-height:100%;font-family:Kaiso;-inkscape-font-specification:'Kaiso Semi-Bold';letter-spacing:0px;word-spacing:0px;writing-mode:tb-rl;fill:#006378;fill-opacity:1;stroke:none;stroke-width:1px;stroke-linecap:butt;stroke-linejoin:miter;stroke-opacity:1"
     id="path4443"
     inkscape:connector-curvature="0" />
  <path
     d="m 201.22577,276.71252 -18.01356,9.6237 -22.20852,-35.53362 0,55.76804 -20.97469,0 0,-54.53424 -21.22147,33.31277 -18.26033,-9.62369 39.4818,-61.69032 0,-15.79272 -35.53362,0 0,-19.7409 35.53362,0 0,-22.20851 -27.3905,0 0,-19.7409 27.3905,0 0,-28.37755 20.97469,0 0,28.37755 27.3905,0 0,19.7409 -27.3905,0 0,22.20851 35.53362,0 0,19.7409 -35.53362,0 0,13.57188 40.22208,64.8982 z m -100.18505,-157.68044 0,143.61506 -52.560153,0 0,-143.61506 52.560153,0 z m -19.740901,125.10796 0,-106.60086 -12.584824,0 0,106.60086 12.584824,0 z"
     style="font-style:normal;font-variant:normal;font-weight:600;font-stretch:normal;font-size:180px;line-height:100%;font-family:Kaiso;-inkscape-font-specification:'Kaiso Semi-Bold';letter-spacing:0px;word-spacing:0px;writing-mode:tb-rl;fill:#006378;fill-opacity:1;stroke:none;stroke-width:1px;stroke-linecap:butt;stroke-linejoin:miter;stroke-opacity:1"
     id="path4445"
     inkscape:connector-curvature="0" />
  <path
     d="m 122.75571,376.40408 c 41.70264,0 75.75569,34.79333 75.75569,77.72979 0,42.93646 -34.05305,77.72983 -75.75569,77.72983 C 81.053058,531.8637 47,497.07033 47,454.13387 c 0,-42.93646 34.053058,-77.72979 75.75571,-77.72979 z m 0,135.71872 c 30.84514,0 56.01479,-25.90996 56.01479,-57.98893 0,-32.07896 -25.16965,-57.98889 -56.01479,-57.98889 -30.845157,0 -56.014805,25.90993 -56.014805,57.98889 0,32.07897 25.169648,57.98893 56.014805,57.98893 z"
     style="font-style:normal;font-variant:normal;font-weight:600;font-stretch:normal;font-size:180px;line-height:100%;font-family:Kaiso;-inkscape-font-specification:'Kaiso Semi-Bold';letter-spacing:0px;word-spacing:0px;writing-mode:tb-rl;fill:#006378;fill-opacity:1;stroke:none;stroke-width:1px;stroke-linecap:butt;stroke-linejoin:miter;stroke-opacity:1"
     id="path4447"
     inkscape:connector-curvature="0" />
  <rect
     y="84.000008"
     x="0"
     height="247"
     width="247"
     id="rect5212"
     style="color:#000000;clip-rule:nonzero;display:inline;overflow:visible;visibility:visible;opacity:1;isolation:auto;mix-blend-mode:normal;color-interpolation:sRGB;color-interpolation-filters:linearRGB;solid-color:#000000;solid-opacity:1;fill:#a4a4a4;fill-opacity:0.59210528;fill-rule:nonzero;stroke:none;stroke-width:1px;stroke-linecap:butt;stroke-linejoin:miter;stroke-miterlimit:4;stroke-dasharray:none;stroke-dashoffset:0;stroke-opacity:1;color-rendering:auto;image-rendering:auto;shape-rendering:auto;text-rendering:auto;enable-background:accumulate" />
  <rect
     y="84.000008"
     x="247"
     height="247"
     width="247"
     id="rect5212-8"
     style="color:#000000;clip-rule:nonzero;display:inline;overflow:visible;visibility:visible;opacity:1;isolation:auto;mix-blend-mode:normal;color-interpolation:sRGB;color-interpolation-filters:linearRGB;solid-color:#000000;solid-opacity:1;fill:#a4a4a4;fill-opacity:0.59210528;fill-rule:nonzero;stroke:none;stroke-width:1px;stroke-linecap:butt;stroke-linejoin:miter;stroke-miterlimit:4;stroke-dasharray:none;stroke-dashoffset:0;stroke-opacity:1;color-rendering:auto;image-rendering:auto;shape-rendering:auto;text-rendering:auto;enable-background:accumulate" />
  <rect
     y="331"
     x="0"
     height="247"
     width="247"
     id="rect5212-3"
     style="color:#000000;clip-rule:nonzero;display:inline;overflow:visible;visibility:visible;opacity:1;isolation:auto;mix-blend-mode:normal;color-interpolation:sRGB;color-interpolation-filters:linearRGB;solid-color:#000000;solid-opacity:1;fill:#a4a4a4;fill-opacity:0.59210528;fill-rule:nonzero;stroke:none;stroke-width:1px;stroke-linecap:butt;stroke-linejoin:miter;stroke-miterlimit:4;stroke-dasharray:none;stroke-dashoffset:0;stroke-opacity:1;color-rendering:auto;image-rendering:auto;shape-rendering:auto;text-rendering:auto;enable-background:accumulate" />
  <rect
     y="331"
     x="247"
     height="247"
     width="247"
     id="rect5212-8-2"
     style="color:#000000;clip-rule:nonzero;display:inline;overflow:visible;visibility:visible;opacity:1;isolation:auto;mix-blend-mode:normal;color-interpolation:sRGB;color-interpolation-filters:linearRGB;solid-color:#000000;solid-opacity:1;fill:#a4a4a4;fill-opacity:0.59210528;fill-rule:nonzero;stroke:none;stroke-width:1px;stroke-linecap:butt;stroke-linejoin:miter;stroke-miterlimit:4;stroke-dasharray:none;stroke-dashoffset:0;stroke-opacity:1;color-rendering:auto;image-rendering:auto;shape-rendering:auto;text-rendering:auto;enable-background:accumulate" />
  <path
     d="m 67.703356,40.62544 0.616903,-3.57803 q 5.181986,3.26959 10.363973,3.26959 3.763109,0 5.367057,-1.54226 1.603948,-1.54226 1.603948,-3.51635 0,-1.85071 -1.357186,-3.02283 -1.295497,-1.17211 -2.899445,-1.72732 -0.678593,-0.18508 -3.578039,-0.6786 -2.899444,-0.55521 -4.935224,-1.48056 -1.974091,-0.92536 -3.392968,-2.83776 -1.418877,-1.97409 -1.418877,-4.19494 0,-1.41888 0.431832,-2.65268 0.493523,-1.2955 1.542258,-2.591 1.048735,-1.35718 3.207896,-2.15916 2.220851,-0.80198 5.305367,-0.80198 l 0.185071,0 q 4.688464,0 9.376928,2.09748 L 87.505947,18.602 q -4.750154,-2.40592 -9.376928,-2.40592 -3.639728,0 -5.058606,1.48057 -1.418877,1.41887 -1.418877,3.14621 0,1.35718 0.987045,2.59099 0.987045,1.17211 2.899445,1.72733 0.370142,0.12338 3.331277,0.74028 2.961135,0.55522 4.00987,0.92536 2.590994,0.92535 4.441703,3.02282 1.9124,2.03578 1.9124,5.05861 0,3.33127 -2.405923,5.98396 -2.344232,2.65268 -8.081431,2.65268 -5.737199,0 -11.042566,-2.89945 z"
     style="font-style:normal;font-variant:normal;font-weight:500;font-stretch:normal;font-size:45px;line-height:125%;font-family:'CMU Bright';-inkscape-font-specification:'CMU Bright Medium';letter-spacing:0px;word-spacing:0px;writing-mode:lr-tb;fill:#006378;fill-opacity:1;stroke:none;stroke-width:1px;stroke-linecap:butt;stroke-linejoin:miter;stroke-opacity:1"
     id="path4422"
     inkscape:connector-curvature="0" />
  <path
     d="m 116.27388,4.10478 0,-3.88649 3.88649,0 0,3.88649 -3.88649,0 z m 0,38.92659 0,-29.11783 3.88649,0 0,29.11783 -3.88649,0 z"
     style="font-style:normal;font-variant:normal;font-weight:500;font-stretch:normal;font-size:45px;line-height:125%;font-family:'CMU Bright';-inkscape-font-specification:'CMU Bright Medium';letter-spacing:0px;word-spacing:0px;writing-mode:lr-tb;fill:#006378;fill-opacity:1;stroke:none;stroke-width:1px;stroke-linecap:butt;stroke-linejoin:miter;stroke-opacity:1"
     id="path4424"
     inkscape:connector-curvature="0" />
  <path
     d="m 150.73368,43.03137 0,-29.11783 3.70142,0 0,4.68846 0.0617,2.89945 q 0.49352,-1.23381 1.35718,-2.46761 0.86367,-1.23381 2.22086,-2.52931 1.35718,-1.35719 3.45466,-2.15916 2.09746,-0.86366 4.62677,-0.92535 l 0,3.45466 q -1.97409,0.0617 -3.88649,0.67859 -1.9124,0.6169 -3.70142,1.9124 -1.78902,1.29549 -2.89944,3.63973 -1.04874,2.28254 -1.04874,5.36706 l 0,14.55891 -3.88649,0 z"
     style="font-style:normal;font-variant:normal;font-weight:500;font-stretch:normal;font-size:45px;line-height:125%;font-family:'CMU Bright';-inkscape-font-specification:'CMU Bright Medium';letter-spacing:0px;word-spacing:0px;writing-mode:lr-tb;fill:#006378;fill-opacity:1;stroke:none;stroke-width:1px;stroke-linecap:butt;stroke-linejoin:miter;stroke-opacity:1"
     id="path4426"
     inkscape:connector-curvature="0" />
  <path
     d="m 188.90071,16.99806 0,-3.08452 5.92226,0 0,-8.32819 3.76312,0 0,8.32819 9.562,0 0,3.08452 -9.562,0 0,17.52004 q 0,5.7989 3.51634,5.7989 0.74029,0 1.41888,-0.0617 0.6786,-0.12338 1.23381,-0.30845 0.6169,-0.24676 1.04873,-0.43183 0.49352,-0.18507 0.92536,-0.49353 0.49352,-0.30845 0.74028,-0.43183 0.24676,-0.18507 0.55522,-0.49352 0.37014,-0.30845 0.43182,-0.30845 l 0.80198,3.02282 q -4.38001,2.71438 -9.37693,2.71438 -5.12029,0 -5.12029,-8.57496 l 0,-17.95188 -5.86058,0 z"
     style="font-style:normal;font-variant:normal;font-weight:500;font-stretch:normal;font-size:45px;line-height:125%;font-family:'CMU Bright';-inkscape-font-specification:'CMU Bright Medium';letter-spacing:0px;word-spacing:0px;writing-mode:lr-tb;fill:#006378;fill-opacity:1;stroke:none;stroke-width:1px;stroke-linecap:butt;stroke-linejoin:miter;stroke-opacity:1"
     id="path4428"
     inkscape:connector-curvature="0" />
  <path
     d="m 234.29803,28.22569 q 0,-6.04565 3.63973,-10.54904 3.63973,-4.50339 9.06848,-4.50339 1.9124,0 3.63973,0.6169 1.78902,0.55521 3.63972,1.97409 1.85072,1.41888 2.96114,4.50339 1.17212,3.02283 1.17212,7.34115 l -20.4195,0 0,0.49352 q 0,5.61382 3.02283,9.00679 3.02282,3.33128 6.971,3.33128 5.24368,0 9.99383,-4.25664 l 0.30846,3.39297 q -4.75016,3.94818 -10.30229,3.94818 -5.67551,0 -9.68538,-4.38001 -4.00987,-4.4417 -4.00987,-10.91919 z m 4.00987,-3.08451 16.77977,0 q -0.43184,-4.68846 -2.83776,-6.78594 -2.34423,-2.09747 -5.24367,-2.09747 -3.14621,0 -5.61382,2.52931 -2.40592,2.5293 -3.08452,6.3541 z"
     style="font-style:normal;font-variant:normal;font-weight:500;font-stretch:normal;font-size:45px;line-height:125%;font-family:'CMU Bright';-inkscape-font-specification:'CMU Bright Medium';letter-spacing:0px;word-spacing:0px;writing-mode:lr-tb;fill:#006378;fill-opacity:1;stroke:none;stroke-width:1px;stroke-linecap:butt;stroke-linejoin:miter;stroke-opacity:1"
     id="path4430"
     inkscape:connector-curvature="0" />
  <path
     d="m 282.27961,16.99806 0,-3.08452 5.92227,0 0,-8.32819 3.76311,0 0,8.32819 9.562,0 0,3.08452 -9.562,0 0,17.52004 q 0,5.7989 3.51634,5.7989 0.74029,0 1.41888,-0.0617 0.6786,-0.12338 1.23381,-0.30845 0.6169,-0.24676 1.04873,-0.43183 0.49352,-0.18507 0.92536,-0.49353 0.49352,-0.30845 0.74028,-0.43183 0.24676,-0.18507 0.55522,-0.49352 0.37014,-0.30845 0.43183,-0.30845 l 0.80197,3.02282 q -4.38001,2.71438 -9.37692,2.71438 -5.1203,0 -5.1203,-8.57496 l 0,-17.95188 -5.86058,0 z"
     style="font-style:normal;font-variant:normal;font-weight:500;font-stretch:normal;font-size:45px;line-height:125%;font-family:'CMU Bright';-inkscape-font-specification:'CMU Bright Medium';letter-spacing:0px;word-spacing:0px;writing-mode:lr-tb;fill:#006378;fill-opacity:1;stroke:none;stroke-width:1px;stroke-linecap:butt;stroke-linejoin:miter;stroke-opacity:1"
     id="path4432"
     inkscape:connector-curvature="0" />
  <path
     d="m 330.02115,43.03137 0,-29.11783 3.70142,0 0,4.68846 0.0617,2.89945 q 0.49353,-1.23381 1.35719,-2.46761 0.86366,-1.23381 2.22085,-2.52931 1.35719,-1.35719 3.45466,-2.15916 2.09747,-0.86366 4.62677,-0.92535 l 0,3.45466 q -1.97409,0.0617 -3.88649,0.67859 -1.9124,0.6169 -3.70142,1.9124 -1.78901,1.29549 -2.89944,3.63973 -1.04874,2.28254 -1.04874,5.36706 l 0,14.55891 -3.88649,0 z"
     style="font-style:normal;font-variant:normal;font-weight:500;font-stretch:normal;font-size:45px;line-height:125%;font-family:'CMU Bright';-inkscape-font-specification:'CMU Bright Medium';letter-spacing:0px;word-spacing:0px;writing-mode:lr-tb;fill:#006378;fill-opacity:1;stroke:none;stroke-width:1px;stroke-linecap:butt;stroke-linejoin:miter;stroke-opacity:1"
     id="path4434"
     inkscape:connector-curvature="0" />
  <path
     d="m 371.95129,4.10478 0,-3.88649 3.88649,0 0,3.88649 -3.88649,0 z m 0,38.92659 0,-29.11783 3.88649,0 0,29.11783 -3.88649,0 z"
     style="font-style:normal;font-variant:normal;font-weight:500;font-stretch:normal;font-size:45px;line-height:125%;font-family:'CMU Bright';-inkscape-font-specification:'CMU Bright Medium';letter-spacing:0px;word-spacing:0px;writing-mode:lr-tb;fill:#006378;fill-opacity:1;stroke:none;stroke-width:1px;stroke-linecap:butt;stroke-linejoin:miter;stroke-opacity:1"
     id="path4436"
     inkscape:connector-curvature="0" />
  <path
     d="m 403.26491,40.62544 0.6169,-3.57803 q 5.18199,3.26959 10.36398,3.26959 3.76311,0 5.36706,-1.54226 1.60394,-1.54226 1.60394,-3.51635 0,-1.85071 -1.35718,-3.02283 -1.2955,-1.17211 -2.89945,-1.72732 -0.67859,-0.18508 -3.57803,-0.6786 -2.89945,-0.55521 -4.93523,-1.48056 -1.97409,-0.92536 -3.39297,-2.83776 -1.41888,-1.97409 -1.41888,-4.19494 0,-1.41888 0.43184,-2.65268 0.49352,-1.2955 1.54226,-2.591 1.04873,-1.35718 3.20789,-2.15916 2.22085,-0.80198 5.30537,-0.80198 l 0.18507,0 q 4.68846,0 9.37693,2.09748 L 423.0675,18.602 q -4.75015,-2.40592 -9.37693,-2.40592 -3.63972,0 -5.0586,1.48057 -1.41888,1.41887 -1.41888,3.14621 0,1.35718 0.98705,2.59099 0.98704,1.17211 2.89944,1.72733 0.37015,0.12338 3.33128,0.74028 2.96113,0.55522 4.00987,0.92536 2.59099,0.92535 4.4417,3.02282 1.91242,2.03578 1.91242,5.05861 0,3.33127 -2.40594,5.98396 -2.34423,2.65268 -8.08143,2.65268 -5.7372,0 -11.04257,-2.89945 z"
     style="font-style:normal;font-variant:normal;font-weight:500;font-stretch:normal;font-size:45px;line-height:125%;font-family:'CMU Bright';-inkscape-font-specification:'CMU Bright Medium';letter-spacing:0px;word-spacing:0px;writing-mode:lr-tb;fill:#006378;fill-opacity:1;stroke:none;stroke-width:1px;stroke-linecap:butt;stroke-linejoin:miter;stroke-opacity:1"
     id="path4438"
     inkscape:connector-curvature="0" />
  <path
     d="m 285.9541,208.29346 0,13.35449 7.91016,0 q 3.97949,0 5.88379,-1.63574 1.92871,-1.66016 1.92871,-5.05371 0,-3.41797 -1.92871,-5.0293 -1.9043,-1.63574 -5.88379,-1.63574 l -7.91016,0 z m 0,-14.99023 0,10.98632 7.29981,0 q 3.61328,0 5.37109,-1.34277 1.78223,-1.36719 1.78223,-4.15039 0,-2.75879 -1.78223,-4.12598 -1.75781,-1.36718 -5.37109,-1.36718 l -7.29981,0 z m -4.93164,-4.05274 12.59766,0 q 5.63965,0 8.6914,2.34375 3.05176,2.34375 3.05176,6.66504 0,3.34473 -1.5625,5.32227 -1.5625,1.97754 -4.58984,2.46582 3.63769,0.78125 5.63965,3.27148 2.02636,2.46582 2.02636,6.17676 0,4.88281 -3.32031,7.54394 -3.32031,2.66114 -9.44824,2.66114 l -13.08594,0 0,-36.4502 z"
     style="font-style:normal;font-weight:normal;font-size:50px;line-height:125%;font-family:sans-serif;letter-spacing:0px;word-spacing:0px;writing-mode:lr-tb;fill:#414141;fill-opacity:1;stroke:none;stroke-width:1px;stroke-linecap:butt;stroke-linejoin:miter;stroke-opacity:1"
     id="path5653"
     inkscape:connector-curvature="0" />
  <path
     d="m 331.21777,189.25049 4.93164,0 0,32.29981 17.74903,0 0,4.15039 -22.68067,0 0,-36.4502 z"
     style="font-style:normal;font-weight:normal;font-size:50px;line-height:125%;font-family:sans-serif;letter-spacing:0px;word-spacing:0px;writing-mode:lr-tb;fill:#414141;fill-opacity:1;stroke:none;stroke-width:1px;stroke-linecap:butt;stroke-linejoin:miter;stroke-opacity:1"
     id="path5655"
     inkscape:connector-curvature="0" />
  <path
     d="m 389.7627,192.59522 q -5.3711,0 -8.54493,4.00391 -3.14941,4.0039 -3.14941,10.91308 0,6.88477 3.14941,10.88867 3.17383,4.00391 8.54493,4.00391 5.37109,0 8.49609,-4.00391 3.14941,-4.0039 3.14941,-10.88867 0,-6.90918 -3.14941,-10.91308 -3.125,-4.00391 -8.49609,-4.00391 z m 0,-4.00391 q 7.66601,0 12.25585,5.15137 4.58985,5.12695 4.58985,13.76953 0,8.61817 -4.58985,13.76953 -4.58984,5.12696 -12.25585,5.12696 -7.69043,0 -12.30469,-5.12696 -4.58985,-5.12695 -4.58985,-13.76953 0,-8.64258 4.58985,-13.76953 4.61426,-5.15137 12.30469,-5.15137 z"
     style="font-style:normal;font-weight:normal;font-size:50px;line-height:125%;font-family:sans-serif;letter-spacing:0px;word-spacing:0px;writing-mode:lr-tb;fill:#414141;fill-opacity:1;stroke:none;stroke-width:1px;stroke-linecap:butt;stroke-linejoin:miter;stroke-opacity:1"
     id="path5657"
     inkscape:connector-curvature="0" />
  <path
     d="m 455.09473,220.50049 0,-9.79004 -8.05664,0 0,-4.05273 12.93945,0 0,15.64941 q -2.85645,2.02637 -6.29883,3.07617 -3.44238,1.0254 -7.34863,1.0254 -8.54492,0 -13.37891,-4.98047 -4.80957,-5.00489 -4.80957,-13.91602 0,-8.93555 4.80957,-13.91601 4.83399,-5.00489 13.37891,-5.00489 3.56445,0 6.76269,0.87891 3.22266,0.87891 5.93262,2.58789 l 0,5.24902 q -2.73437,-2.31933 -5.81055,-3.49121 -3.07617,-1.17187 -6.46972,-1.17187 -6.68946,0 -10.0586,3.73535 -3.34472,3.73535 -3.34472,11.13281 0,7.37305 3.34472,11.1084 3.36914,3.73535 10.0586,3.73535 2.6123,0 4.66308,-0.43945 2.05078,-0.46387 3.68653,-1.41602 z"
     style="font-style:normal;font-weight:normal;font-size:50px;line-height:125%;font-family:sans-serif;letter-spacing:0px;word-spacing:0px;writing-mode:lr-tb;fill:#414141;fill-opacity:1;stroke:none;stroke-width:1px;stroke-linecap:butt;stroke-linejoin:miter;stroke-opacity:1"
     id="path5659"
     inkscape:connector-curvature="0" />
  <path
     d="m 280.68066,436.27491 4.93164,0 0,14.9414 17.91993,0 0,-14.9414 4.93164,0 0,36.45019 -4.93164,0 0,-17.3584 -17.91993,0 0,17.3584 -4.93164,0 0,-36.45019 z"
     style="font-style:normal;font-weight:normal;font-size:50px;line-height:125%;font-family:sans-serif;letter-spacing:0px;word-spacing:0px;writing-mode:lr-tb;fill:#414141;fill-opacity:1;stroke:none;stroke-width:1px;stroke-linecap:butt;stroke-linejoin:miter;stroke-opacity:1"
     id="path5635"
     inkscape:connector-curvature="0" />
  <path
     d="m 339.12793,455.31788 0,13.35449 7.91016,0 q 3.97949,0 5.88378,-1.63574 1.92872,-1.66016 1.92872,-5.05372 0,-3.41796 -1.92872,-5.02929 -1.90429,-1.63574 -5.88378,-1.63574 l -7.91016,0 z m 0,-14.99024 0,10.98633 7.2998,0 q 3.61329,0 5.3711,-1.34277 1.78222,-1.36719 1.78222,-4.1504 0,-2.75878 -1.78222,-4.12597 -1.75781,-1.36719 -5.3711,-1.36719 l -7.2998,0 z m -4.93164,-4.05273 12.59766,0 q 5.63964,0 8.6914,2.34375 3.05176,2.34375 3.05176,6.66504 0,3.34472 -1.5625,5.32226 -1.5625,1.97754 -4.58984,2.46582 3.63769,0.78125 5.63964,3.27149 2.02637,2.46582 2.02637,6.17675 0,4.88282 -3.32031,7.54395 -3.32031,2.66113 -9.44824,2.66113 l -13.08594,0 0,-36.45019 z"
     style="font-style:normal;font-weight:normal;font-size:50px;line-height:125%;font-family:sans-serif;letter-spacing:0px;word-spacing:0px;writing-mode:lr-tb;fill:#414141;fill-opacity:1;stroke:none;stroke-width:1px;stroke-linecap:butt;stroke-linejoin:miter;stroke-opacity:1"
     id="path5637"
     inkscape:connector-curvature="0" />
  <path
     d="m 389.32324,455.31788 0,13.35449 7.91016,0 q 3.97949,0 5.88379,-1.63574 1.92871,-1.66016 1.92871,-5.05372 0,-3.41796 -1.92871,-5.02929 -1.9043,-1.63574 -5.88379,-1.63574 l -7.91016,0 z m 0,-14.99024 0,10.98633 7.29981,0 q 3.61328,0 5.37109,-1.34277 1.78223,-1.36719 1.78223,-4.1504 0,-2.75878 -1.78223,-4.12597 -1.75781,-1.36719 -5.37109,-1.36719 l -7.29981,0 z m -4.93164,-4.05273 12.59766,0 q 5.63965,0 8.6914,2.34375 3.05176,2.34375 3.05176,6.66504 0,3.34472 -1.5625,5.32226 -1.5625,1.97754 -4.58984,2.46582 3.63769,0.78125 5.63965,3.27149 2.02636,2.46582 2.02636,6.17675 0,4.88282 -3.32031,7.54395 -3.32031,2.66113 -9.44824,2.66113 l -13.08594,0 0,-36.45019 z"
     style="font-style:normal;font-weight:normal;font-size:50px;line-height:125%;font-family:sans-serif;letter-spacing:0px;word-spacing:0px;writing-mode:lr-tb;fill:#414141;fill-opacity:1;stroke:none;stroke-width:1px;stroke-linecap:butt;stroke-linejoin:miter;stroke-opacity:1"
     id="path5639"
     inkscape:connector-curvature="0" />
  <path
     d="m 429.58203,436.27491 5.29785,0 10.10742,14.99023 10.03418,-14.99023 5.29786,0 -12.89063,19.09179 0,17.3584 -4.95605,0 0,-17.3584 -12.89063,-19.09179 z"
     style="font-style:normal;font-weight:normal;font-size:50px;line-height:125%;font-family:sans-serif;letter-spacing:0px;word-spacing:0px;writing-mode:lr-tb;fill:#414141;fill-opacity:1;stroke:none;stroke-width:1px;stroke-linecap:butt;stroke-linejoin:miter;stroke-opacity:1"
     id="path5641"
     inkscape:connector-curvature="0" />
  <path
     d="m 49.94043,188.65235 0,13.69629 6.201172,0 q 3.442382,0 5.322265,-1.78223 1.879883,-1.78223 1.879883,-5.07812 0,-3.27149 -1.879883,-5.05372 -1.879883,-1.78222 -5.322265,-1.78222 l -6.201172,0 z m -4.931641,-4.05274 11.132813,0 q 6.127929,0 9.252929,2.78321 3.149414,2.75879 3.149414,8.10547 0,5.3955 -3.149414,8.15429 -3.125,2.75879 -9.252929,2.75879 l -6.201172,0 0,14.64844 -4.931641,0 0,-36.4502 z"
     style="font-style:normal;font-weight:normal;font-size:50px;line-height:125%;font-family:sans-serif;letter-spacing:0px;word-spacing:0px;writing-mode:lr-tb;fill:#414141;fill-opacity:1;stroke:none;stroke-width:1px;stroke-linecap:butt;stroke-linejoin:miter;stroke-opacity:1"
     id="path5644"
     inkscape:connector-curvature="0" />
  <path
     d="m 108.3877,203.95997 q 1.58691,0.5371 3.07617,2.29492 1.51367,1.75781 3.02734,4.83398 l 5.00488,9.96094 -5.29785,0 -4.66308,-9.35059 q -1.80664,-3.66211 -3.51563,-4.8584 -1.68457,-1.19628 -4.61426,-1.19628 l -5.37109,0 0,15.40527 -4.931641,0 0,-36.4502 11.132811,0 q 6.25,0 9.32617,2.61231 3.07618,2.6123 3.07618,7.88574 0,3.44238 -1.61133,5.71289 -1.58692,2.27051 -4.63867,3.14942 z m -12.35352,-15.30762 0,12.93945 6.20117,0 q 3.56445,0 5.3711,-1.63574 1.83105,-1.66016 1.83105,-4.8584 0,-3.19824 -1.83105,-4.80957 -1.80665,-1.63574 -5.3711,-1.63574 l -6.20117,0 z"
     style="font-style:normal;font-weight:normal;font-size:50px;line-height:125%;font-family:sans-serif;letter-spacing:0px;word-spacing:0px;writing-mode:lr-tb;fill:#414141;fill-opacity:1;stroke:none;stroke-width:1px;stroke-linecap:butt;stroke-linejoin:miter;stroke-opacity:1"
     id="path5646"
     inkscape:connector-curvature="0" />
  <path
     d="m 156.58105,187.94434 q -5.37109,0 -8.54492,4.00391 -3.14941,4.0039 -3.14941,10.91308 0,6.88477 3.14941,10.88867 3.17383,4.00391 8.54492,4.00391 5.3711,0 8.4961,-4.00391 3.14941,-4.0039 3.14941,-10.88867 0,-6.90918 -3.14941,-10.91308 -3.125,-4.00391 -8.4961,-4.00391 z m 0,-4.00391 q 7.66602,0 12.25586,5.15137 4.58985,5.12695 4.58985,13.76953 0,8.61817 -4.58985,13.76953 -4.58984,5.12696 -12.25586,5.12696 -7.69042,0 -12.30468,-5.12696 -4.58985,-5.12695 -4.58985,-13.76953 0,-8.64258 4.58985,-13.76953 4.61426,-5.15137 12.30468,-5.15137 z"
     style="font-style:normal;font-weight:normal;font-size:50px;line-height:125%;font-family:sans-serif;letter-spacing:0px;word-spacing:0px;writing-mode:lr-tb;fill:#414141;fill-opacity:1;stroke:none;stroke-width:1px;stroke-linecap:butt;stroke-linejoin:miter;stroke-opacity:1"
     id="path5648"
     inkscape:connector-curvature="0" />
  <path
     d="m 197.05957,184.59961 4.93164,0 0,33.91114 q 0,6.59179 -2.51465,9.57031 -2.49023,2.97851 -8.03222,2.97851 l -1.87989,0 0,-4.15039 1.53809,0 q 3.27148,0 4.61426,-1.83105 1.34277,-1.83106 1.34277,-6.56738 l 0,-33.91114 z"
     style="font-style:normal;font-weight:normal;font-size:50px;line-height:125%;font-family:sans-serif;letter-spacing:0px;word-spacing:0px;writing-mode:lr-tb;fill:#414141;fill-opacity:1;stroke:none;stroke-width:1px;stroke-linecap:butt;stroke-linejoin:miter;stroke-opacity:1"
     id="path5650"
     inkscape:connector-curvature="0" />
  <path
     d="m 41.151367,436.25049 7.348633,0 9.301758,24.80469 9.350586,-24.80469 7.348633,0 0,36.4502 -4.809571,0 0,-32.00684 -9.399414,25 -4.956055,0 -9.399414,-25 0,32.00684 -4.785156,0 0,-36.4502 z"
     style="font-style:normal;font-weight:normal;font-size:50px;line-height:125%;font-family:sans-serif;letter-spacing:0px;word-spacing:0px;writing-mode:lr-tb;fill:#414141;fill-opacity:1;stroke:none;stroke-width:1px;stroke-linecap:butt;stroke-linejoin:miter;stroke-opacity:1"
     id="path5626"
     inkscape:connector-curvature="0" />
  <path
     d="m 100.2334,436.25049 4.93164,0 0,36.4502 -4.93164,0 0,-36.4502 z"
     style="font-style:normal;font-weight:normal;font-size:50px;line-height:125%;font-family:sans-serif;letter-spacing:0px;word-spacing:0px;writing-mode:lr-tb;fill:#414141;fill-opacity:1;stroke:none;stroke-width:1px;stroke-linecap:butt;stroke-linejoin:miter;stroke-opacity:1"
     id="path5628"
     inkscape:connector-curvature="0" />
  <path
     d="m 152.74805,437.44678 0,4.80957 q -2.80762,-1.34277 -5.29785,-2.00195 -2.49024,-0.65918 -4.80958,-0.65918 -4.02831,0 -6.22558,1.5625 -2.17285,1.5625 -2.17285,4.44336 0,2.41699 1.44043,3.66211 1.46484,1.2207 5.51757,1.97754 l 2.97852,0.61035 q 5.51758,1.0498 8.12988,3.71094 2.63672,2.63671 2.63672,7.08007 0,5.29786 -3.56445,8.03223 -3.54004,2.73438 -10.40039,2.73438 -2.58789,0 -5.51758,-0.58594 -2.90527,-0.58594 -6.03027,-1.7334 l 0,-5.07813 q 3.00293,1.68457 5.88379,2.53907 2.88086,0.85449 5.66406,0.85449 4.22363,0 6.51855,-1.66016 2.29493,-1.66015 2.29493,-4.73633 0,-2.68554 -1.66016,-4.19921 -1.63574,-1.51368 -5.39551,-2.27051 l -3.00293,-0.58594 q -5.51758,-1.09863 -7.9834,-3.44238 -2.46582,-2.34375 -2.46582,-6.51856 0,-4.83398 3.39356,-7.61718 3.41797,-2.78321 9.39941,-2.78321 2.56348,0 5.22461,0.46387 2.66113,0.46387 5.44434,1.3916 z"
     style="font-style:normal;font-weight:normal;font-size:50px;line-height:125%;font-family:sans-serif;letter-spacing:0px;word-spacing:0px;writing-mode:lr-tb;fill:#414141;fill-opacity:1;stroke:none;stroke-width:1px;stroke-linecap:butt;stroke-linejoin:miter;stroke-opacity:1"
     id="path5630"
     inkscape:connector-curvature="0" />
  <path
     d="m 205.84863,439.05811 0,5.20019 q -2.49023,-2.31933 -5.32226,-3.46679 -2.80762,-1.14746 -5.98145,-1.14746 -6.25,0 -9.57031,3.833 -3.32031,3.8086 -3.32031,11.03516 0,7.20215 3.32031,11.03516 3.32031,3.80859 9.57031,3.80859 3.17383,0 5.98145,-1.14746 2.83203,-1.14746 5.32226,-3.4668 l 0,5.15137 q -2.58789,1.75781 -5.49316,2.63672 -2.88086,0.87891 -6.10352,0.87891 -8.27636,0 -13.03711,-5.05372 -4.76074,-5.07812 -4.76074,-13.84277 0,-8.78906 4.76074,-13.84277 4.76075,-5.07813 13.03711,-5.07813 3.27149,0 6.15235,0.87891 2.90527,0.85449 5.44433,2.58789 z"
     style="font-style:normal;font-weight:normal;font-size:50px;line-height:125%;font-family:sans-serif;letter-spacing:0px;word-spacing:0px;writing-mode:lr-tb;fill:#414141;fill-opacity:1;stroke:none;stroke-width:1px;stroke-linecap:butt;stroke-linejoin:miter;stroke-opacity:1"
     id="path5632"
     inkscape:connector-curvature="0" />
  <path
     inkscape:connector-curvature="0"
     id="rect4180"
     d="m 0,3e-5 0,84 247,0 247,0 0,-84 -494,0 z"
     style="color:#000000;clip-rule:nonzero;display:inline;overflow:visible;visibility:visible;opacity:1;isolation:auto;mix-blend-mode:normal;color-interpolation:sRGB;color-interpolation-filters:linearRGB;solid-color:#000000;solid-opacity:1;fill:none;fill-opacity:1;fill-rule:nonzero;stroke:none;stroke-width:1px;stroke-linecap:butt;stroke-linejoin:miter;stroke-miterlimit:4;stroke-dasharray:none;stroke-dashoffset:0;stroke-opacity:1;color-rendering:auto;image-rendering:auto;shape-rendering:auto;text-rendering:auto;enable-background:accumulate" />
</svg>
